<svg viewBox="0 0 88 88" fill="none" xmlns="http://www.w3.org/2000/svg">
  <rect x="6" y="6" width="76" height="76" rx="24" fill="#080808" />
  <path d="M24 28.5C24 22.7 28.7 18 34.5 18H49.5C58 18 65 25 65 33.5C65 42 58 49 49.5 49H36.5V37.5H48.7C52.9 37.5 56.3 34.1 56.3 29.9C56.3 25.7 52.9 22.3 48.7 22.3H35.7C31.5 22.3 28.1 25.7 28.1 29.9V57.1C28.1 61.3 31.5 64.7 35.7 64.7H48.7C51.8 64.7 54.3 62.2 54.3 59.1C54.3 56 51.8 53.5 48.7 53.5H38.6V42.3H49.6C57.8 42.3 64.4 48.9 64.4 57.1C64.4 65.3 57.8 71.9 49.6 71.9H34.3C28.6 71.9 24 67.3 24 61.6V28.5Z" fill="white" />
  <circle cx="64" cy="23" r="7" fill="#DC2626" />
  <path d="M18 57C28 48 39.5 43.5 53 43.5C58 43.5 62.5 44.2 67 45.8" stroke="#DC2626" stroke-width="4.5" stroke-linecap="round" />
  <circle cx="18" cy="57" r="4" fill="#DC2626" />
</svg>
